<?xml version="1.0" encoding="UTF-8" standalone="no"?>
<!-- Created with Inkscape (http://www.inkscape.org/) -->

<svg
   xmlns:dc="http://purl.org/dc/elements/1.1/"
   xmlns:cc="http://creativecommons.org/ns#"
   xmlns:rdf="http://www.w3.org/1999/02/22-rdf-syntax-ns#"
   xmlns:svg="http://www.w3.org/2000/svg"
   xmlns="http://www.w3.org/2000/svg"
   xmlns:sodipodi="http://sodipodi.sourceforge.net/DTD/sodipodi-0.dtd"
   xmlns:inkscape="http://www.inkscape.org/namespaces/inkscape"
   width="53.073757mm"
   height="39.751923mm"
   viewBox="0 0 188.05662 140.85327"
   id="svg9709"
   version="1.1"
   inkscape:version="0.91 r13725"
   sodipodi:docname="chart.svg">
  <defs
     id="defs9711" />
  <sodipodi:namedview
     id="base"
     pagecolor="#ffffff"
     bordercolor="#666666"
     borderopacity="1.0"
     inkscape:pageopacity="0.0"
     inkscape:pageshadow="2"
     inkscape:zoom="0.35"
     inkscape:cx="-493.82883"
     inkscape:cy="67.569489"
     inkscape:document-units="px"
     inkscape:current-layer="layer1"
     showgrid="false"
     fit-margin-top="0"
     fit-margin-left="0"
     fit-margin-right="0"
     fit-margin-bottom="0"
     inkscape:window-width="1366"
     inkscape:window-height="715"
     inkscape:window-x="0"
     inkscape:window-y="0"
     inkscape:window-maximized="1" />
  <metadata
     id="metadata9714">
    <rdf:RDF>
      <cc:Work
         rdf:about="">
        <dc:format>image/svg+xml</dc:format>
        <dc:type
           rdf:resource="http://purl.org/dc/dcmitype/StillImage" />
        <dc:title></dc:title>
      </cc:Work>
    </rdf:RDF>
  </metadata>
  <g
     inkscape:label="Calque 1"
     inkscape:groupmode="layer"
     id="layer1"
     transform="translate(-283.11454,-459.07842)">
    <path
       id="rect9643"
       d="m 402.74201,459.07868 a 1.3962725,1.3962725 0 0 0 -0.9759,0.37195 l -11.67,10.81618 a 1.3962725,1.3962725 0 0 0 -0.027,0.0278 1.3962725,1.3962725 0 0 0 -0.056,0.0571 1.3962725,1.3962725 0 0 0 -0.038,0.044 1.3962725,1.3962725 0 0 0 -0.052,0.0648 1.3962725,1.3962725 0 0 0 -0.031,0.0448 1.3962725,1.3962725 0 0 0 -0.046,0.071 1.3962725,1.3962725 0 0 0 -0.028,0.0502 1.3962725,1.3962725 0 0 0 -0.036,0.0718 1.3962725,1.3962725 0 0 0 -0.022,0.0517 1.3962725,1.3962725 0 0 0 -0.03,0.0783 1.3962725,1.3962725 0 0 0 -0.018,0.0548 1.3962725,1.3962725 0 0 0 -0.022,0.0764 1.3962725,1.3962725 0 0 0 -0.013,0.0602 1.3962725,1.3962725 0 0 0 -0.013,0.0772 1.3962725,1.3962725 0 0 0 -0.01,0.0579 1.3962725,1.3962725 0 0 0 -0.01,0.099 1.3962725,1.3962725 0 0 0 0,0.008 1.3962725,1.3962725 0 0 0 0,0.0293 l 0,14.82743 -7.3719,-2.0599 0,-7.10477 a 1.0472044,1.0472044 0 0 0 -0.01,-0.0641 1.0472044,1.0472044 0 0 0 0,-0.034 1.0472044,1.0472044 0 0 0 -0.01,-0.0633 1.0472044,1.0472044 0 0 0 -0.01,-0.0409 1.0472044,1.0472044 0 0 0 -0.012,-0.0479 1.0472044,1.0472044 0 0 0 -0.014,-0.0548 1.0472044,1.0472044 0 0 0 -0.016,-0.044 1.0472044,1.0472044 0 0 0 -0.019,-0.0533 1.0472044,1.0472044 0 0 0 -0.025,-0.0548 1.0472044,1.0472044 0 0 0 -0.019,-0.0394 1.0472044,1.0472044 0 0 0 -0.036,-0.0618 1.0472044,1.0472044 0 0 0 -0.017,-0.027 1.0472044,1.0472044 0 0 0 -0.041,-0.0548 1.0472044,1.0472044 0 0 0 -0.023,-0.0301 1.0472044,1.0472044 0 0 0 -0.043,-0.0463 1.0472044,1.0472044 0 0 0 -0.028,-0.0301 1.0472044,1.0472044 0 0 0 -0.042,-0.0378 1.0472044,1.0472044 0 0 0 -0.038,-0.0332 1.0472044,1.0472044 0 0 0 -0.037,-0.027 1.0472044,1.0472044 0 0 0 -0.048,-0.034 1.0472044,1.0472044 0 0 0 -0.035,-0.0208 1.0472044,1.0472044 0 0 0 -0.056,-0.0324 1.0472044,1.0472044 0 0 0 -0.026,-0.0124 1.0472044,1.0472044 0 0 0 -0.068,-0.0301 1.0472044,1.0472044 0 0 0 -0.031,-0.0108 1.0472044,1.0472044 0 0 0 -0.071,-0.0239 1.0472044,1.0472044 0 0 0 -0.01,0 1.0472044,1.0472044 0 0 0 -0.073,-0.0178 l -14.2914,-2.77669 a 1.0472044,1.0472044 0 0 0 -0.2084,-0.0193 1.0472044,1.0472044 0 0 0 -0.5895,0.18752 l -6.4471,4.48703 -7.1538,-1.99899 c -0.033,-0.0139 -0.069,-0.027 -0.1099,-0.0386 l 0,0 0,0 c -0.099,-0.0263 -0.216,-0.0409 -0.3424,-0.0448 -0.043,0 -0.085,0 -0.1293,0 -0.059,0.008 -0.1185,0.008 -0.1788,0.0139 -0.01,0 -0.019,0 -0.028,0.008 l 0,0 c -0.2952,0.0355 -0.5701,0.12499 -0.7407,0.24109 l -5.3866,2.80641 -5.5494,-1.50653 a 0.69813628,0.69813628 0 0 0 -0.2072,-0.0239 0.69813628,0.69813628 0 0 0 -0.3213,0.0911 l -11.8123,6.73004 a 0.69813628,0.69813628 0 0 0 -0.02,0.0131 0.69813628,0.69813628 0 0 0 -0.025,0.0162 0.69813628,0.69813628 0 0 0 -0.033,0.0239 0.69813628,0.69813628 0 0 0 -0.022,0.0178 0.69813628,0.69813628 0 0 0 -0.032,0.0286 0.69813628,0.69813628 0 0 0 -0.019,0.0193 0.69813628,0.69813628 0 0 0 -0.027,0.0293 0.69813628,0.69813628 0 0 0 -0.02,0.0239 0.69813628,0.69813628 0 0 0 -0.022,0.0286 0.69813628,0.69813628 0 0 0 -0.019,0.0278 0.69813628,0.69813628 0 0 0 -0.018,0.0317 0.69813628,0.69813628 0 0 0 -0.016,0.0293 0.69813628,0.69813628 0 0 0 -0.015,0.0317 0.69813628,0.69813628 0 0 0 -0.013,0.0316 0.69813628,0.69813628 0 0 0 -0.013,0.0363 0.69813628,0.69813628 0 0 0 -0.01,0.0293 0.69813628,0.69813628 0 0 0 -0.01,0.0332 0.69813628,0.69813628 0 0 0 -0.01,0.0394 0.69813628,0.69813628 0 0 0 -0.01,0.0239 0.69813628,0.69813628 0 0 0 -0.01,0.0455 0.69813628,0.69813628 0 0 0 0,0.0232 0.69813628,0.69813628 0 0 0 0,0.0239 l 0,3.60765 -12.1774,6.34421 c -0.1057,0.044 -0.2026,0.0946 -0.2863,0.14915 l -14.4977,7.55329 c -0.1166,0.0494 -0.2247,0.1056 -0.3201,0.1669 l -16.27951,8.48122 c -0.3833,0.16336 -0.6848,0.39271 -0.8098,0.61651 -0.01,0.008 -0.01,0.0139 -0.012,0.0216 0,0 0,0 0,0 -0.1188,0.22133 -0.049,0.40938 0.1897,0.50611 l 9.6031,6.74857 c 0.051,0.0618 0.1236,0.1131 0.21561,0.15162 l 11.1505,7.83584 c 0.062,0.0718 0.1473,0.13155 0.252,0.17694 l 13.1046,9.20905 c 0.076,0.0844 0.1769,0.15525 0.2978,0.20937 l 15.6217,10.97791 c 0.096,0.1009 0.2165,0.18581 0.3578,0.25136 l 18.9408,13.31047 c 0.1217,0.12282 0.2697,0.22666 0.4379,0.30756 l 23.4433,16.4747 c 0.1583,0.15285 0.3436,0.28309 0.5484,0.3853 l 29.7681,20.91935 c 0.6271,0.58177 1.4651,0.8911 2.248,0.82811 0.024,0 0.049,-0.008 0.072,-0.008 0,-8e-5 0,0 0,0 0,-1.5e-4 0,0 0,0 0.7702,-0.071 1.3844,-0.49608 1.6533,-1.142 l 16.8684,-25.03559 c 0.1411,-0.13394 0.2472,-0.29151 0.3141,-0.46628 l 13.5919,-20.17191 c 0.1199,-0.10986 0.2064,-0.23839 0.256,-0.38013 l 11.1851,-16.60038 c 0.1038,-0.0918 0.1756,-0.19856 0.2127,-0.31574 l 9.3659,-13.90051 c 0.091,-0.078 0.1517,-0.16791 0.1797,-0.26641 l 7.9569,-11.80934 c 0.2391,-0.1984 0.2164,-0.47439 -0.06,-0.74142 -0.01,-0.008 -0.017,-0.0178 -0.026,-0.0263 l 0,0 c 0,0 0,0 0,0 -0.2781,-0.26139 -0.766,-0.48087 -1.3149,-0.59227 l -23.9914,-6.70333 c -0.1432,-0.0533 -0.2988,-0.0967 -0.4608,-0.12869 l -20.5613,-5.74514 c -0.1215,-0.0463 -0.2555,-0.0838 -0.3974,-0.11101 l -0.4526,-0.12645 0,-32.82195 a 1.3962725,1.3962725 0 0 0 -0.01,-0.0486 1.3962725,1.3962725 0 0 0 -0.01,-0.0625 1.3962725,1.3962725 0 0 0 -0.01,-0.0726 1.3962725,1.3962725 0 0 0 -0.01,-0.0664 1.3962725,1.3962725 0 0 0 -0.015,-0.0703 1.3962725,1.3962725 0 0 0 -0.017,-0.0664 1.3962725,1.3962725 0 0 0 -0.022,-0.0672 1.3962725,1.3962725 0 0 0 -0.024,-0.0648 1.3962725,1.3962725 0 0 0 -0.028,-0.0633 1.3962725,1.3962725 0 0 0 -0.03,-0.0625 1.3962725,1.3962725 0 0 0 -0.034,-0.0618 1.3962725,1.3962725 0 0 0 -0.037,-0.0602 1.3962725,1.3962725 0 0 0 -0.039,-0.054 1.3962725,1.3962725 0 0 0 -0.045,-0.0587 1.3962725,1.3962725 0 0 0 -0.043,-0.0494 1.3962725,1.3962725 0 0 0 -0.049,-0.054 1.3962725,1.3962725 0 0 0 -0.047,-0.0448 1.3962725,1.3962725 0 0 0 -0.058,-0.051 1.3962725,1.3962725 0 0 0 -0.048,-0.0371 1.3962725,1.3962725 0 0 0 -0.065,-0.0463 1.3962725,1.3962725 0 0 0 -0.051,-0.0324 1.3962725,1.3962725 0 0 0 -0.067,-0.0386 1.3962725,1.3962725 0 0 0 -0.059,-0.0293 1.3962725,1.3962725 0 0 0 -0.067,-0.0293 1.3962725,1.3962725 0 0 0 -0.059,-0.0224 1.3962725,1.3962725 0 0 0 -0.077,-0.0255 1.3962725,1.3962725 0 0 0 -0.055,-0.0147 1.3962725,1.3962725 0 0 0 -0.082,-0.0185 1.3962725,1.3962725 0 0 0 -0.043,-0.008 1.3962725,1.3962725 0 0 0 -0.047,-0.008 l -19.6575,-2.35448 a 1.3962725,1.3962725 0 0 0 -0.1394,-0.009 z m 0.4483,2.85906 16.329,1.95568 -8.8294,9.72088 -16.6694,-3.17789 9.1698,-8.49867 z m 17.7856,4.50471 0,58.11484 -8.3827,9.22897 0,-58.11461 8.3827,-9.2292 z m -28.5347,6.53566 17.3597,3.30928 0,58.94542 -17.3597,-7.87945 0,-54.37525 z m -25.2682,2.31095 11.595,2.25266 -9.7363,7.57267 0,0 -11.6397,-3.01755 9.7814,-6.80778 z m -15.1772,1.35877 6.7844,1.93113 -4.4548,3.10039 a 1.0472044,1.0472044 0 0 0 -0.018,0.0139 1.0472044,1.0472044 0 0 0 -0.039,0.0309 1.0472044,1.0472044 0 0 0 -0.039,0.0324 1.0472044,1.0472044 0 0 0 -0.041,0.0386 1.0472044,1.0472044 0 0 0 -0.035,0.0355 1.0472044,1.0472044 0 0 0 -0.035,0.0401 1.0472044,1.0472044 0 0 0 -0.032,0.0386 1.0472044,1.0472044 0 0 0 -0.031,0.0448 1.0472044,1.0472044 0 0 0 -0.028,0.0432 1.0472044,1.0472044 0 0 0 -0.025,0.0455 1.0472044,1.0472044 0 0 0 -0.023,0.0455 1.0472044,1.0472044 0 0 0 -0.022,0.0517 1.0472044,1.0472044 0 0 0 -0.018,0.0448 1.0472044,1.0472044 0 0 0 -0.017,0.0533 1.0472044,1.0472044 0 0 0 -0.013,0.0463 1.0472044,1.0472044 0 0 0 -0.012,0.0548 1.0472044,1.0472044 0 0 0 -0.01,0.0494 1.0472044,1.0472044 0 0 0 -0.01,0.054 1.0472044,1.0472044 0 0 0 -0.01,0.0486 1.0472044,1.0472044 0 0 0 0,0.0471 l 0,1.32118 -1.6415,0.92523 -0.589,-0.19145 0,-3.69104 a 0.69813628,0.69813628 0 0 0 0,-0.034 0.69813628,0.69813628 0 0 0 0,-0.0293 0.69813628,0.69813628 0 0 0 -0.01,-0.0417 0.69813628,0.69813628 0 0 0 -0.01,-0.0262 0.69813628,0.69813628 0 0 0 -0.012,-0.0479 0.69813628,0.69813628 0 0 0 -0.01,-0.0185 0.69813628,0.69813628 0 0 0 -0.015,-0.0424 0.69813628,0.69813628 0 0 0 -0.01,-0.0247 0.69813628,0.69813628 0 0 0 -0.015,-0.0317 0.69813628,0.69813628 0 0 0 -0.016,-0.034 0.69813628,0.69813628 0 0 0 -0.014,-0.0232 0.69813628,0.69813628 0 0 0 -0.022,-0.0355 0.69813628,0.69813628 0 0 0 -0.025,-0.034 0.69813628,0.69813628 0 0 0 -0.015,-0.0201 0.69813628,0.69813628 0 0 0 -0.026,-0.0293 0.69813628,0.69813628 0 0 0 -0.023,-0.0247 0.69813628,0.69813628 0 0 0 -0.02,-0.0185 0.69813628,0.69813628 0 0 0 -0.032,-0.0278 0.69813628,0.69813628 0 0 0 -0.026,-0.0193 0.69813628,0.69813628 0 0 0 -0.029,-0.0208 0.69813628,0.69813628 0 0 0 -0.027,-0.0162 0.69813628,0.69813628 0 0 0 -0.035,-0.0208 0.69813628,0.69813628 0 0 0 -0.026,-0.0124 0.69813628,0.69813628 0 0 0 -0.035,-0.0162 0.69813628,0.69813628 0 0 0 -0.037,-0.0131 0.69813628,0.69813628 0 0 0 -0.032,-0.0108 0.69813628,0.69813628 0 0 0 -0.01,0 l -3.9211,-1.06465 4.7861,-2.51676 z m -11.8099,2.05689 9.0247,2.44998 -10.2923,6.35138 0,0 -8.9367,-2.98728 10.2047,-5.81408 z m 39.9969,0.38962 0,29.45816 -9.8681,7.67488 0,-29.45816 9.8681,-7.67488 z m -29.933,3.05955 0,14.72097 -10.5448,6.50702 0,-14.72075 10.5448,-6.50724 z m 5.7209,1.73805 12.2497,3.17566 0,29.67547 -12.2497,-5.56002 0,-27.29111 z m -2.0942,1.28737 0,0.13927 -0.1557,-0.051 0.1557,-0.0886 z m 28.4004,0.0883 5.8147,1.65514 -5.8147,3.98802 0,-5.64316 z m -53.3004,0.38715 9.3324,3.11953 0,14.77555 -9.3324,-4.23582 0,-13.65926 z m 23.2969,0.43764 1.6031,0.5312 0,8.83356 -1.3039,0.80472 -0.9266,-0.35341 0,-9.45856 0.6274,-0.35751 z m 37.3755,1.59663 0,9.25205 -7.372,-2.39494 0,-1.72632 7.372,-5.13079 z m -62.0684,1.79888 0,9.19454 -0.7513,0.42352 -9.413,-4.27265 10.1643,-5.34541 z m -11.9359,6.27712 9.3811,4.35749 -13.2489,7.46791 -9.1037,-5.00341 12.9715,-6.82199 z m 66.6323,0.26966 7.372,2.44295 0,4.03874 -6.8067,5.29407 -0.5653,-0.21562 0,-11.56014 z m 42.19,1.24236 18.4131,5.24149 -8.2184,9.04786 -10.8934,-3.53933 0,-10.10271 0.6987,-0.64731 z m -71.8455,0.63944 1.2551,0.4892 0,11.98436 -0.8707,0.59721 -12.3399,-5.60094 11.9555,-7.46983 z m -26.1505,2.87712 10.7022,4.97122 -13.5289,8.34844 -10.4603,-5.74923 13.287,-7.57043 z m 119.2778,2.54131 21.5132,6.12395 -7.2507,10.34396 -22.3815,-7.2719 8.119,-9.19601 z m -145.0599,0.29536 9.0544,5.10648 -14.9967,8.4535 -8.63671,-5.89274 14.57901,-7.66724 z m 88.9601,1.39668 0,5.38061 -4.5865,-1.7501 4.5865,-3.63051 z m -50.8198,1.50685 12.3239,5.72414 -13.7393,9.42359 -12.1445,-6.67523 13.5599,-8.4725 z m -27.6857,2.99269 10.4154,5.87383 -15.4559,9.53792 -10.0156,-6.83318 15.0561,-8.57857 z m 112.6248,0.25738 9.6178,3.18685 -9.5269,10.4887 -0.091,-0.0347 0,-13.64096 z m -40.3146,0.14722 6.1953,2.41408 0,13.55968 -1.2601,1.14254 -16.8793,-7.66152 11.9441,-9.45478 z m -30.3842,3.21718 14.3437,6.66242 -13.8314,10.75728 -14.271,-7.84395 13.7587,-9.57575 z m 83.2995,0.81098 22.5099,7.45918 -8.518,12.15211 -23.418,-8.93446 9.4261,-10.67683 z m -113.1915,2.35402 12.1074,6.82824 -15.8657,10.88195 -11.7529,-8.01856 15.5112,-9.69163 z m 46.4793,4.53937 16.9044,7.85182 -13.7258,12.44577 -17.0096,-9.34886 13.831,-10.94873 z m -32.4792,3.35615 14.2484,8.0357 -16.175,12.58041 -13.9852,-9.5417 15.9118,-11.07441 z m 88.2928,2.09502 23.5513,9.17732 -10.1497,14.47973 -24.4785,-11.11038 11.0769,-12.54667 z m -36.2468,3.6373 20.2183,9.39117 -13.2914,14.63296 -20.6196,-11.33348 13.6927,-12.69065 z m -35.5553,3.56806 17.0126,9.59458 -16.2957,14.77586 -16.92,-11.54401 16.2031,-12.82643 z m 58.9836,7.31412 24.612,11.43192 -12.2995,17.54684 -25.5155,-14.02402 13.203,-14.95474 z m -39.2722,3.80228 20.6671,11.65556 -16.0711,17.69352 -20.8869,-14.25068 16.2909,-15.0984 z m 23.977,13.52231 25.6408,14.46035 -15.2132,21.70361 -26.4336,-18.03466 16.006,-18.1293 z"
       style="color:#000000;font-style:normal;font-variant:normal;font-weight:normal;font-stretch:normal;font-size:medium;line-height:normal;font-family:sans-serif;text-indent:0;text-align:start;text-decoration:none;text-decoration-line:none;text-decoration-style:solid;text-decoration-color:#000000;letter-spacing:normal;word-spacing:normal;text-transform:none;direction:ltr;block-progression:tb;writing-mode:lr-tb;baseline-shift:baseline;text-anchor:start;white-space:normal;clip-rule:nonzero;display:inline;overflow:visible;visibility:visible;opacity:1;isolation:auto;mix-blend-mode:normal;color-interpolation:sRGB;color-interpolation-filters:linearRGB;solid-color:#000000;solid-opacity:1;fill:#ff8080;fill-opacity:1;fill-rule:evenodd;stroke:none;stroke-width:25;stroke-linecap:round;stroke-linejoin:round;stroke-miterlimit:4;stroke-dasharray:none;stroke-dashoffset:0;stroke-opacity:1;filter:url(#filter4218);color-rendering:auto;image-rendering:auto;shape-rendering:auto;text-rendering:auto;enable-background:accumulate"
       inkscape:connector-curvature="0"
       inkscape:export-xdpi="100"
       inkscape:export-ydpi="100" />
  </g>
</svg>
